<svg xmlns="http://www.w3.org/2000/svg" xmlns:xlink="http://www.w3.org/1999/xlink" viewBox="0 0 603 602">
  <g id="crocstrap" class ="color_part" style="isolation: isolate">
    <path d="M137,105c53.43-1,88.06,23.71,116.5,48.5,10.43,9.09,25,18.76,32.5,30.5-5,.31-5.66,2.74-9,4-11.35,4.29-21.83,5.24-32.5,9-15.76-8.75-25.67-25.27-43.5-32.5-32.64-13.24-98.57-8-113,18a201.77,201.77,0,0,0,29.5,56c2.3,3.07,6,2.54,9,5,7.67,6.31,17.82,13.88,22,23.5,7.95,18.31-2.76,44.19-18,49-7.91,2.49-19.14-3.35-23.28-6.18C104,304,99.5,298.5,95,293c-1.72-5.19-2.29-8.19-4.5-12-10.44-18-17.3-31.42-22-51-1.74-7.25-5.64-28.29-3.5-34.5,11.45-33.25,12.29-61.79,38.5-79.5C113,109.6,125.76,110.45,137,105Z" fill-rule="evenodd"/>
  </g>
  <g id="crocbody" class ="color_part" style="isolation: isolate">
    <path d="M46,308.5c0-13.05-6.53-20.17-9-31.5V256c-6.07-33.68.27-50.5,25-63,.5.17,5.41.25,3.5.5-3.72,32.57,15.82,76.93,37,105l3,8c4.15,5,19,13.85,28.5,8,12.53-7.7,22.9-31.72,13.5-47.5-6.58-11.05-14.37-12.86-23-20.5-10.14-9-17.4-20.41-24-33-3.72-7.1-11.75-15.14-10-25.5l1.5-.5c9.34-3.88,32.75-2.59,43-.5l56,9c11,2.32,27.1,7,42,4,25.42-5.13,46-15.63,68-24.5,6.49-2.61,17.48-12.73,27-9,9.39,4.71,22.35,35.69,30.5,45,24.71,28.22,56.18,55.27,90,74,11.73,6.5,26.89,11.75,39.5,15.5l15,1c23.76,5.26,39.27,11.51,50.5,29,6.39,10,2.25,28.42,5.5,42,6.45,26.93-12.23,57.67-35,66.5l-12,1c-4.95,7.83-18.94,18.14-29.5,13.5-6.79,5.73-14.05,10.66-25.5,12l-5.5-4c-3.41,2.07-3.44,6.43-6.5,8.5L431,474c-3.52.88-5.19,4-8,5-3.84,1.33-9.54,1.44-12,2-7.14,1.63-14.51-1.67-23,0-53.8,10.57-107.69-8-143-30.5l-11.5-3c-4.86-2.11-11.45-7.6-16-11-4.3-3.22-5.47-7.35-8.5-12-4.7-7.21-12.81-14.09-17-21.5-7.29-12.89-16-28-29-35-3.83-2.08-45.51-4.95-50-2.5-24.28-10.44-51.31-26.37-63.5-49-.72-1.33.38-5.69-1-8Z" fill-rule="evenodd"/>
  </g>
  <g id="croclogo" class ="color_part" style="isolation: isolate">
    <path d="M109,254c26.94-.79,34.29,48.93,12,54C99,313,83.56,267.28,109,254Z" fill-rule="evenodd"/>
  </g>
  <g id="shadowimage">
    <image id="shadow" width="1206" height="1204" transform="scale(0.5)" xlink:href="croc1.png"/>
  </g>
</svg>
